<svg width="48" height="48" viewBox="0 0 48 48" fill="none" xmlns="http://www.w3.org/2000/svg">
<g filter="url(#filter0_d_77_489)">
<rect x="4" y="3" width="40" height="40" rx="8" fill="#FEFFFD" shape-rendering="crispEdges"/>
<path d="M34.125 23C34.1254 24.9951 33.5364 26.9459 32.4319 28.6074C31.3274 30.2689 29.7567 31.5671 27.9169 32.3389C26.0771 33.1107 24.0503 33.3218 22.0909 32.9456C20.1316 32.5694 18.3271 31.6228 16.9039 30.2245C15.4808 28.8262 14.5025 27.0387 14.0918 25.0862C13.6811 23.1338 13.8565 21.1036 14.5957 19.2505C15.335 17.3974 16.6053 15.804 18.2471 14.6704C19.8888 13.5368 21.8289 12.9135 23.8238 12.8788C23.8838 12.875 23.94 12.875 24 12.875C26.6853 12.8752 29.2605 13.942 31.1592 15.8408C33.058 17.7395 34.1248 20.3148 34.125 23Z" fill="#D2D2D2"/>
<path d="M33.3299 22.6024C33.3301 25.1631 32.3206 27.6206 30.5203 29.4417C28.72 31.2627 26.2742 32.3004 23.7137 32.3295C21.1531 32.3586 18.6844 31.3769 16.8431 29.5972C15.0019 27.8176 13.9367 25.3837 13.8787 22.8237C13.9227 20.1998 14.9846 17.6958 16.8402 15.8402C18.6958 13.9846 21.1998 12.9227 23.8237 12.8787C26.3645 12.9362 28.7819 13.9859 30.5585 15.8032C32.3351 17.6204 33.3299 20.061 33.3299 22.6024Z" fill="#F6F4E6"/>
<path d="M24 31.625C28.7635 31.625 32.625 27.7635 32.625 23C32.625 18.2365 28.7635 14.375 24 14.375C19.2365 14.375 15.375 18.2365 15.375 23C15.375 27.7635 19.2365 31.625 24 31.625Z" fill="#EB5E55"/>
<path d="M29.4375 21.5H18.5625C18.3554 21.5 18.1875 21.6679 18.1875 21.875V24.125C18.1875 24.3321 18.3554 24.5 18.5625 24.5H29.4375C29.6446 24.5 29.8125 24.3321 29.8125 24.125V21.875C29.8125 21.6679 29.6446 21.5 29.4375 21.5Z" fill="#F6F4E6"/>
</g>
<defs>
<filter id="filter0_d_77_489" x="0" y="0" width="48" height="48" filterUnits="userSpaceOnUse" color-interpolation-filters="sRGB">
<feFlood flood-opacity="0" result="BackgroundImageFix"/>
<feColorMatrix in="SourceAlpha" type="matrix" values="0 0 0 0 0 0 0 0 0 0 0 0 0 0 0 0 0 0 127 0" result="hardAlpha"/>
<feOffset dy="1"/>
<feGaussianBlur stdDeviation="2"/>
<feComposite in2="hardAlpha" operator="out"/>
<feColorMatrix type="matrix" values="0 0 0 0 0 0 0 0 0 0 0 0 0 0 0 0 0 0 0.1 0"/>
<feBlend mode="normal" in2="BackgroundImageFix" result="effect1_dropShadow_77_489"/>
<feBlend mode="normal" in="SourceGraphic" in2="effect1_dropShadow_77_489" result="shape"/>
</filter>
</defs>
</svg>
